/* XPM */
static char * Play_xpm[] = {
"17 17 11 1",
" 	c None",
".	c #000000",
"+	c #22B030",
"@	c #29B530",
"#	c #2FBB2F",
"$	c #36C02F",
"%	c #3CC62E",
"&	c #43CB2E",
"*	c #49D12E",
"=	c #50D62D",
"-	c #56DC2D",
"...   ...        ",
".+@.  .+@.       ",
".+@#. .+@#.      ",
".+@#$..+@#$.     ",
".+@#$%.+@#$%.    ",
".+@#$%&.@#$%&.   ",
".+@#$%&*.#$%&*.  ",
".+@#$%&*=.$%&*=. ",
".+@#$%&*=-.%&*=-.",
".+@#$%&*=.$%&*=. ",
".+@#$%&*.#$%&*.  ",
".+@#$%&.@#$%&.   ",
".+@#$%.+@#$%.    ",
".+@#$..+@#$.     ",
".+@#. .+@#.      ",
".+@.  .+@.       ",
"...   ...        "};
