/* XPM */
static char * Record_xpm[] = {
"16 16 12 1",
" 	c None",
".	c #A7A7A7",
"+	c #575757",
"@	c #202020",
"#	c #040404",
"$	c #000000",
"%	c #380000",
"&	c #970000",
"*	c #D90000",
"=	c #3C3C3C",
"-	c #FF0000",
";	c #B80000",
"    .+@##@+.    ",
"   +$%&**&%$+   ",
"  =$&------&$=  ",
" +$;--------;$+ ",
".$&----------&$.",
"+%------------%+",
"@&------------&@",
"#*------------*#",
"#*------------*#",
"@&------------&@",
"+%------------%+",
".$&----------&$.",
" +$;--------;$+ ",
"  =$&------&$=  ",
"   +$%&**&%$+   ",
"    .+@##@+.    "};
