/* XPM */
static char * SaveAll_xpm[] = {
"19 16 78 1",
" 	c None",
".	c #000000",
"+	c #F7F8FA",
"@	c #CBDDEB",
"#	c #C88A80",
"$	c #D18F84",
"%	c #D19084",
"&	c #D39186",
"*	c #BFD5E8",
"=	c #DBE7F1",
"-	c #8DA9BE",
";	c #B7877E",
">	c #C77568",
",	c #C77467",
"'	c #C77466",
")	c #C87668",
"!	c #CD867A",
"~	c #54697C",
"{	c #CFE0ED",
"]	c #D7D7D7",
"^	c #FEFEFE",
"/	c #F9F9F9",
"(	c #84A0B5",
"_	c #4F6475",
":	c #90EE90",
"<	c #F4F4F4",
"[	c #EBEBEB",
"}	c #FDF5E6",
"|	c #F2F2F2",
"1	c #C7CFDA",
"2	c #BFCBD6",
"3	c #89A6BC",
"4	c #7F9AAE",
"5	c #819AAE",
"6	c #7E99AD",
"7	c #7D97AC",
"8	c #496072",
"9	c #8CA8BD",
"0	c #A8B1BD",
"a	c #C5C5C5",
"b	c #CECECE",
"c	c #9C9D9D",
"d	c #2F4656",
"e	c #80868C",
"f	c #183042",
"g	c #33495A",
"h	c #D6D6D6",
"i	c #B9B9B9",
"j	c #132D3C",
"k	c #586D80",
"l	c #97A5B0",
"m	c #86A4B9",
"n	c #CDCDCD",
"o	c #2E4353",
"p	c #5A7082",
"q	c #BFBFBF",
"r	c #112835",
"s	c #9DA9B0",
"t	c #6B7882",
"u	c #839EB2",
"v	c #E6E6E6",
"w	c #213648",
"x	c #5F7989",
"y	c #C2C2C2",
"z	c #B2B2B2",
"A	c #112C3A",
"B	c #9FA9B0",
"C	c #59636D",
"D	c #A1A1A1",
"E	c #C0C0C0",
"F	c #909090",
"G	c #868686",
"H	c #6E6E6E",
"I	c #7A7A7A",
"J	c #2D3949",
"K	c #3E4F5C",
"L	c #80878F",
"M	c #1A3140",
"  ..............   ",
" .+@#$$$$$$%$&**.  ",
" .=-;>,,,,',)!-~.  ",
" .{-]^^^^^^^^/(_.  ",
"......]]].]]]......",
".::::.^^^.<[^.}}}}.",
".::::.].....].}}}}.",
".::::.^|[.[[^.}}}}.",
"......122.221......",
" .{--34555567558.  ",
" .{-90aab[]cde58.  ",
" .{-(aafghaijkl8.  ",
" .{m5anopaaqrps8.  ",
" .tu5nvwxayzApB8.  ",
"  .C_DEFFGHIJKLM.  ",
"   .............   "};
