/* XPM */
static char * Step_xpm[] = {
"18 17 12 1",
" 	c None",
".	c #000000",
"+	c #930006",
"@	c #9D000C",
"#	c #A70111",
"$	c #B10118",
"%	c #BB011E",
"&	c #C60223",
"*	c #D0022A",
"=	c #DA0230",
"-	c #E40336",
";	c #EE033C",
"..... ....        ",
".+@#. .+@#.       ",
".+@#. .+@#$.      ",
".+@#. .+@#$%.     ",
".+@#. .+@#$%&.    ",
".+@#. .+@#$%&*.   ",
".+@#. .+@#$%&*=.  ",
".+@#. .+@#$%&*=-. ",
".+@#. .+@#$%&*=-;.",
".+@#. .+@#$%&*=-. ",
".+@#. .+@#$%&*=.  ",
".+@#. .+@#$%&*.   ",
".+@#. .+@#$%&.    ",
".+@#. .+@#$%.     ",
".+@#. .+@#$.      ",
".+@#. .+@#.       ",
"..... ....        "};
