/* XPM */
static char * Stop_xpm[] = {
"16 16 65 1",
" 	c None",
".	c #000000",
"+	c #00BD0A",
"@	c #00BF09",
"#	c #00C209",
"$	c #00C408",
"%	c #00C708",
"&	c #00C907",
"*	c #00CC06",
"=	c #00CE06",
"-	c #00D005",
";	c #00D304",
">	c #00D504",
",	c #00D803",
"'	c #00DA03",
")	c #00DA02",
"!	c #00BB0B",
"~	c #00C009",
"{	c #00C508",
"]	c #00C707",
"^	c #00D105",
"/	c #00D604",
"(	c #00B90B",
"_	c #00BB0A",
":	c #00BE0A",
"<	c #00C309",
"[	c #00CA07",
"}	c #00CF05",
"|	c #00D404",
"1	c #00B70C",
"2	c #00BC0A",
"3	c #00C308",
"4	c #00C807",
"5	c #00CD06",
"6	c #00B50C",
"7	c #00B70B",
"8	c #00BA0B",
"9	c #00C109",
"0	c #00C608",
"a	c #00CB07",
"b	c #00D205",
"c	c #00B30D",
"d	c #00BF0A",
"e	c #00CB06",
"f	c #00B10D",
"g	c #00B80B",
"h	c #00AE0E",
"i	c #00B30C",
"j	c #00B60C",
"k	c #00AC0E",
"l	c #00AF0E",
"m	c #00B40C",
"n	c #00AA0F",
"o	c #00AD0E",
"p	c #00B20D",
"q	c #00A80F",
"r	c #00AB0F",
"s	c #00AF0D",
"t	c #00A610",
"u	c #00A90F",
"v	c #00B00D",
"w	c #00A410",
"x	c #00AB0E",
"y	c #00A211",
"z	c #00A710",
"................",
".+@#$%&*=-;>,').",
".!+~#{]&*=^;/,).",
".(_:~<{][*}^|/,.",
".1(2:~3{4[5}^|/.",
".6782:9304a5}b|.",
".c6782d9$04e5-b.",
".fc6g8+@#$0&e=-.",
".hfijg!+@#$%&*=.",
".klfmjg!+~#{]&*.",
".nolpmj(_:~<{][.",
".qrospm1(2:~3{4.",
".turovp6782:930.",
".wtuxhvc6782d9$.",
".ywzukhfc6g8+@#.",
"................"};
