/* XPM */
static char * AppIcon_xpm[] = {
"41 18 150 2",
"  	c None",
". 	c #666666",
"+ 	c #0F0F0F",
"@ 	c #141414",
"# 	c #898989",
"$ 	c #131313",
"% 	c #010101",
"& 	c #111111",
"* 	c #121212",
"= 	c #020202",
"- 	c #101010",
"; 	c #757575",
"> 	c #D1D1D1",
", 	c #D3D3D3",
"' 	c #D6D6D6",
") 	c #D9D9D9",
"! 	c #DCDCDC",
"~ 	c #DFDFDF",
"{ 	c #E2E2E2",
"] 	c #838383",
"^ 	c #6F6F6F",
"/ 	c #C5C5C5",
"( 	c #C7C7C7",
"_ 	c #CACACA",
": 	c #CCCCCC",
"< 	c #CFCFCF",
"[ 	c #D2D2D2",
"} 	c #D5D5D5",
"| 	c #D8D8D8",
"1 	c #DBDBDB",
"2 	c #E6E6E6",
"3 	c #E9E9E9",
"4 	c #878787",
"5 	c #6B6B6B",
"6 	c #BDBDBD",
"7 	c #BFBFBF",
"8 	c #C1C1C1",
"9 	c #C3C3C3",
"0 	c #C6C6C6",
"a 	c #C8C8C8",
"b 	c #CBCBCB",
"c 	c #CECECE",
"d 	c #D4D4D4",
"e 	c #EAEAEA",
"f 	c #EEEEEE",
"g 	c #030303",
"h 	c #676767",
"i 	c #B5B5B5",
"j 	c #B7B7B7",
"k 	c #B8B8B8",
"l 	c #BABABA",
"m 	c #BCBCBC",
"n 	c #C4C4C4",
"o 	c #CDCDCD",
"p 	c #E3E3E3",
"q 	c #E7E7E7",
"r 	c #EBEBEB",
"s 	c #EFEFEF",
"t 	c #F3F3F3",
"u 	c #8D8D8D",
"v 	c #636363",
"w 	c #AFAFAF",
"x 	c #B0B0B0",
"y 	c #B2B2B2",
"z 	c #B4B4B4",
"A 	c #B6B6B6",
"B 	c #BBBBBB",
"C 	c #C0C0C0",
"D 	c #E0E0E0",
"E 	c #E4E4E4",
"F 	c #E8E8E8",
"G 	c #ECECEC",
"H 	c #F0F0F0",
"I 	c #F4F4F4",
"J 	c #606060",
"K 	c #A9A9A9",
"L 	c #AAAAAA",
"M 	c #ACACAC",
"N 	c #ADADAD",
"O 	c #B1B1B1",
"P 	c #B9B9B9",
"Q 	c #DDDDDD",
"R 	c #E1E1E1",
"S 	c #E5E5E5",
"T 	c #EDEDED",
"U 	c #F2F2F2",
"V 	c #F6F6F6",
"W 	c #8F8F8F",
"X 	c #5D5D5D",
"Y 	c #A3A3A3",
"Z 	c #A4A4A4",
"` 	c #A5A5A5",
" .	c #A7A7A7",
"..	c #ABABAB",
"+.	c #B3B3B3",
"@.	c #DADADA",
"#.	c #DEDEDE",
"$.	c #F8F8F8",
"%.	c #909090",
"&.	c #5A5A5A",
"*.	c #9E9E9E",
"=.	c #9F9F9F",
"-.	c #A1A1A1",
";.	c #A2A2A2",
">.	c #A6A6A6",
",.	c #D7D7D7",
"'.	c #F1F1F1",
").	c #FAFAFA",
"!.	c #929292",
"~.	c #575757",
"{.	c #999999",
"].	c #9A9A9A",
"^.	c #9B9B9B",
"/.	c #9C9C9C",
"(.	c #A0A0A0",
"_.	c #A8A8A8",
":.	c #AEAEAE",
"<.	c #FDFDFD",
"[.	c #0C0C0C",
"}.	c #949494",
"|.	c #959595",
"1.	c #969696",
"2.	c #979797",
"3.	c #FBFBFB",
"4.	c #FFFFFF",
"5.	c #151515",
"6.	c #525252",
"7.	c #919191",
"8.	c #939393",
"9.	c #9D9D9D",
"0.	c #D0D0D0",
"a.	c #F5F5F5",
"b.	c #F9F9F9",
"c.	c #FEFEFE",
"d.	c #0B0B0B",
"e.	c #8B8B8B",
"f.	c #8A8A8A",
"g.	c #8E8E8E",
"h.	c #4D4D4D",
"i.	c #868686",
"j.	c #858585",
"k.	c #888888",
"l.	c #8C8C8C",
"m.	c #F7F7F7",
"n.	c #828282",
"o.	c #818181",
"p.	c #808080",
"q.	c #0A0A0A",
"r.	c #0D0D0D",
"s.	c #0E0E0E",
"                              . + @ @ @ @ @ @ @ @ #                               ",
"                        # @ $ % % & * * * * $ * = = @ @ #                         ",
"                    # @ = = - - ; > , ' ) ! ~ { ] $ $ = = @ #                     ",
"                # @ = = + ^ / ( _ : < [ } | 1 ~ { 2 3 4 $ = = @ #                 ",
"              # = = + 5 6 7 8 9 0 a b c > d | 1 ~ { 2 e f # @ = g #               ",
"            # = = h i j k l m 7 8 n ( _ o > d | 1 ~ p q r s t u = g #             ",
"          # = = v w x y z A k B 6 C 9 0 _ o > d | ! D E F G H I u = g #           ",
"        # = % J K L M N w O z j P m C 9 0 _ o > } ) Q R S 3 T U V W = g #         ",
"      # = % X Y Z `  .K ..N x +.i P m 7 9 0 _ c [ ' @.#.{ q r s t $.%.g g #       ",
"    # = % &.*.=.=.-.;.Z >.K M w y i k m C 9 ( b < , ,.! D E F T '.V ).!.g g #     ",
"    @ = ~.{.{.].^./.*.(.;.` _...:.O i P m C n a : > } ) Q { 2 r s I $.<.!.g @     ",
"  # = [.}.}.}.|.1.2.{./.*.-.Z  .L :.y i P 6 8 0 _ c [ ,.1 D E 3 T U V 3.4.5.g #   ",
"  @ % 6.W W W %.7.8.|.2.].9.(.Y  ...w +.j B 7 9 ( : 0.} ) #.{ q G H a.b.c.!.g @   ",
"# = d.e.f.f.f.e.u g.7.8.1.{./.(.Z _.M x z k m 8 / _ c , ,.! R S e s t $.<.4.5.g # ",
"@ = h.i.i.j.i.i.k.f.l.W !.1.{.9.-.` K N O A l 7 9 a : > ' @.~ E F T U m.3.4.!.g @ ",
"$ d.] n.o.p.o.n.] i.k.e.W !.1.].*.;.>...w z k 6 8 0 b < d ) #.{ q G '.a.).4.4.5.@ ",
"- % q.q.q.q.q.q.q.q.q.d.d.d.[.[.[.r.r.r.s.s.+ + + - - - & & * * * $ $ @ @ @ 5.g @ ",
"# @ @ @ @ @ @ @ @ @ @ @ @ @ @ @ @ @ @ @ @ @ @ @ @ @ @ @ @ @ @ @ @ @ @ @ @ @ @ @ # "};
